<svg xmlns="http://www.w3.org/2000/svg" width="256" height="256" viewBox="0 0 256 256">
  <defs>
    <radialGradient id="g" cx="50%" cy="40%" r="70%">
      <stop offset="0%" stop-color="#0a84ff"/>
      <stop offset="55%" stop-color="#af52de"/>
      <stop offset="100%" stop-color="#ff9f0a"/>
    </radialGradient>
    <filter id="soft" x="-20%" y="-20%" width="140%" height="140%">
      <feGaussianBlur in="SourceGraphic" stdDeviation="2"/>
    </filter>
  </defs>
  <rect x="8" y="8" width="240" height="240" rx="56" fill="#0b0f19"/>
  <circle cx="128" cy="128" r="78" fill="url(#g)" filter="url(#soft)"/>
  <g fill="#ffffff">
    <path d="M128 82c-26 0-46 20-46 46s20 46 46 46 46-20 46-46-20-46-46-46zm0 16c17 0 30 13 30 30s-13 30-30 30-30-13-30-30 13-30 30-30z" opacity="0.9"/>
    <path d="M88 128h80v6H88z" opacity="0.9"/>
    <path d="M122 96h12v64h-12z" opacity="0.9"/>
  </g>
</svg>
